<?xml version="1.0" standalone="no"?>
<!DOCTYPE svg PUBLIC "-//W3C//DTD SVG 20010904//EN"
 "http://www.w3.org/TR/2001/REC-SVG-20010904/DTD/svg10.dtd">
<svg version="1.0" xmlns="http://www.w3.org/2000/svg"
 width="301.000000pt" height="301.000000pt" viewBox="0 0 301.000000 301.000000"
 preserveAspectRatio="xMidYMid meet">
<metadata>
Created by potrace 1.11, written by Peter Selinger 2001-2013
</metadata>
<g transform="translate(0.000000,301.000000) scale(0.100000,-0.100000)"
fill="#000000" stroke="none">
<path d="M1625 3000 c-143 -21 -223 -40 -345 -80 -331 -110 -649 -333 -839
-589 -118 -160 -196 -365 -226 -596 -7 -54 -8 -254 -1 -295 2 -14 7 -50 11
-80 9 -79 48 -236 95 -384 45 -143 60 -225 62 -336 5 -198 -37 -324 -143 -428
l-44 -43 35 6 c67 12 125 46 183 108 145 154 209 416 172 709 -8 68 -17 134
-20 148 -14 70 -28 198 -29 260 0 221 120 475 317 672 191 191 428 306 732
354 63 10 265 12 330 3 33 -4 81 -10 106 -13 68 -9 193 -43 294 -81 49 -19 90
-33 91 -32 2 4 73 154 102 217 16 36 53 114 81 174 28 60 50 110 49 111 -2 2
-41 21 -88 43 -106 51 -270 106 -375 126 -44 9 -93 18 -110 22 -46 9 -384 12
-440 4z"/>
<path d="M1645 2315 c-3 -11 -6 -94 -8 -184 -2 -149 0 -164 15 -167 13 -1 21
9 29 39 27 100 87 182 169 229 48 28 141 56 178 53 43 -3 22 14 -30 24 -95 18
-151 24 -251 25 -91 2 -98 0 -102 -19z"/>
<path d="M1529 2316 c-2 -3 -18 -7 -34 -10 -63 -11 -85 -18 -85 -24 0 -4 14
-80 32 -169 32 -159 33 -163 58 -163 50 0 51 6 56 194 3 141 1 176 -9 176 -8
0 -16 -2 -18 -4z"/>
<path d="M1256 2234 c-32 -13 -60 -25 -63 -27 -4 -5 146 -307 153 -307 2 0 21
7 40 15 26 11 34 19 30 32 -2 10 -14 52 -25 93 -12 41 -25 89 -30 105 -5 17
-15 49 -21 73 -6 23 -14 42 -18 41 -4 0 -33 -11 -66 -25z"/>
<path d="M1062 2134 c-29 -19 -52 -39 -50 -44 7 -19 204 -250 213 -250 5 0 22
8 37 18 l26 17 -81 148 c-44 81 -83 147 -86 146 -3 0 -30 -16 -59 -35z"/>
<path d="M902 2007 c-23 -23 -42 -47 -42 -53 0 -6 57 -55 126 -108 l126 -98
28 27 29 28 -111 123 c-61 68 -111 124 -112 124 -1 0 -21 -19 -44 -43z"/>
<path d="M777 1845 c-16 -25 -27 -50 -25 -57 2 -6 63 -41 136 -78 l131 -66 22
29 c11 16 17 33 13 37 -22 20 -237 180 -243 180 -3 0 -19 -20 -34 -45z"/>
<path d="M1550 1844 c-91 -19 -143 -38 -218 -80 -131 -74 -255 -232 -315 -402
-28 -77 -31 -99 -31 -197 0 -60 6 -130 13 -155 7 -25 14 -52 16 -60 2 -8 14
-55 28 -105 46 -164 62 -299 44 -361 -3 -10 -9 -39 -12 -64 -3 -25 -11 -62
-16 -84 -6 -21 -9 -39 -7 -41 10 -7 188 32 358 80 285 79 289 80 319 56 170
-134 629 -400 736 -427 30 -7 30 -7 6 92 -17 66 -40 201 -66 374 -10 67 -19
245 -19 363 l0 118 -33 -4 c-48 -7 -163 18 -226 48 -30 14 -74 42 -97 63 l-42
37 30 28 c107 102 315 97 419 -11 65 -66 92 -149 91 -272 -1 -44 1 -82 3 -84
2 -2 21 -7 42 -10 20 -3 54 -9 75 -12 20 -3 40 -8 43 -10 3 -1 29 -6 58 -9
l52 -6 -44 58 c-91 122 -158 248 -261 496 -80 191 -93 217 -149 294 -111 150
-295 252 -522 288 -79 13 -211 12 -275 -1z"/>
<path d="M686 1663 c-9 -26 -16 -52 -16 -58 0 -6 53 -21 128 -35 70 -12 132
-25 139 -27 6 -3 19 9 27 26 15 29 15 31 -4 41 -20 11 -247 100 -255 100 -1 0
-10 -21 -19 -47z"/>
<path d="M646 1488 c-13 -58 -18 -318 -6 -318 5 0 10 8 10 18 0 26 43 113 76
151 30 36 114 81 152 81 15 0 26 9 33 26 5 15 8 28 7 29 -2 2 -23 6 -48 9 -25
3 -54 8 -65 10 -11 2 -42 7 -70 10 -27 4 -57 9 -66 12 -12 3 -18 -4 -23 -28z"/>
</g>
</svg>
