<?xml version="1.0" standalone="no"?>
<!DOCTYPE svg PUBLIC "-//W3C//DTD SVG 20010904//EN"
 "http://www.w3.org/TR/2001/REC-SVG-20010904/DTD/svg10.dtd">
<svg version="1.0" xmlns="http://www.w3.org/2000/svg"
 width="174.000000pt" height="174.000000pt" viewBox="0 0 174.000000 174.000000"
 preserveAspectRatio="xMidYMid meet">
<metadata>
Created by potrace 1.11, written by Peter Selinger 2001-2013
</metadata>
<g transform="translate(0.000000,174.000000) scale(0.100000,-0.100000)"
fill="#000000" stroke="none">
<path d="M870 1724 c-303 -65 -575 -262 -676 -491 -40 -90 -64 -207 -64 -315
0 -113 17 -209 61 -350 28 -87 33 -119 34 -203 0 -119 -13 -162 -68 -222 l-40
-43 27 0 c37 0 78 23 114 65 93 105 122 268 87 480 -32 193 -13 304 73 436 89
136 212 229 377 285 155 52 389 43 548 -21 l58 -23 70 145 c38 80 69 149 69
153 0 18 -206 92 -304 109 -83 15 -288 12 -366 -5z"/>
<path d="M867 1338 l-49 -10 7 -37 c28 -154 41 -184 71 -163 9 6 30 225 21
221 -1 -1 -24 -6 -50 -11z"/>
<path d="M956 1334 c-3 -9 -6 -58 -6 -110 0 -112 14 -123 49 -38 29 68 78 108
159 126 l57 12 -40 12 c-22 7 -79 13 -126 13 -70 1 -88 -2 -93 -15z"/>
<path d="M728 1292 l-36 -17 46 -92 c46 -90 47 -91 73 -80 l27 12 -27 94 c-14
52 -30 96 -36 97 -5 2 -27 -4 -47 -14z"/>
<path d="M623 1239 c-18 -12 -33 -25 -33 -29 0 -15 121 -150 135 -150 7 0 18
6 24 14 10 11 2 32 -36 100 -26 47 -50 86 -53 86 -3 0 -20 -10 -37 -21z"/>
<path d="M527 1162 c-15 -15 -27 -31 -27 -34 0 -3 34 -32 76 -64 61 -47 79
-56 92 -47 9 5 17 15 17 21 0 12 -115 152 -125 152 -4 0 -18 -13 -33 -28z"/>
<path d="M455 1070 c-8 -16 -15 -33 -15 -38 0 -4 36 -25 79 -47 67 -32 82 -36
95 -25 9 7 16 16 16 21 0 9 -142 119 -153 119 -4 0 -13 -13 -22 -30z"/>
<path d="M892 1069 c-63 -12 -156 -66 -203 -116 -22 -24 -56 -77 -76 -118 -48
-101 -48 -174 -2 -354 l33 -132 -15 -90 -15 -89 22 0 c13 0 76 14 141 31 236
63 211 61 268 18 107 -80 357 -219 393 -219 10 0 13 8 9 27 -39 220 -48 284
-54 394 l-6 129 -27 0 c-46 0 -124 28 -160 58 l-35 29 35 22 c107 65 231 13
260 -109 7 -28 10 -66 7 -85 l-5 -33 55 -11 c62 -12 113 -14 113 -5 0 3 -13
23 -28 43 -46 58 -79 120 -142 266 -32 75 -71 155 -86 176 -88 128 -305 203
-482 168z"/>
<path d="M401 958 c-14 -40 -10 -42 87 -58 76 -12 92 -8 92 25 0 9 -135 65
-158 65 -5 0 -15 -14 -21 -32z"/>
<path d="M376 828 c-9 -79 -7 -156 4 -163 6 -3 10 1 10 10 0 47 58 119 109
136 33 11 50 25 51 40 0 6 -123 29 -153 29 -10 0 -16 -17 -21 -52z"/>
</g>
</svg>
